<svg version="1" xmlns="http://www.w3.org/2000/svg" width="933.333" height="933.333" viewBox="0 0 700.000000 700.000000"><path d="M73.7 1C40 6.7 13.8 30 3.3 63.7L.5 72.5v555l2.8 8.8c9.5 30.4 30 50.9 60.4 60.4l8.8 2.8h555l8.8-2.8c31-9.7 52.8-32.1 60.9-62.7l2.3-8.5v-553l-2.8-8.8c-9.5-30.4-30-50.9-60.4-60.4L627.5.5 353 .4C202 .3 76.3.6 73.7 1zm557.8 53.8c6.6 3 10.2 6.6 13.1 12.7l2.4 5V350c0 277 0 277.5-2.1 282-2.7 6-6.4 9.8-12.4 12.6l-5 2.4h-555l-5-2.4c-6-2.8-9.7-6.6-12.4-12.6-2.1-4.5-2.1-5-2.1-282s0-277.5 2.1-282c3.7-8.2 10.6-13.4 19.8-15 2.5-.4 127.7-.7 278.1-.6l273.5.1 5 2.3z"/><path d="M105 333c0 125.4.2 228 .5 228s12.4-10.7 26.8-23.8c14.4-13.1 49.1-44.6 77-70 28-25.4 51.2-46.2 51.5-46.2.4 0 14.7 18.7 31.7 41.5 17.1 22.7 31.3 41.3 31.7 41.2.4-.1 39.8-35.8 87.5-79.2 47.6-43.5 87.1-79 87.6-79 .6 0 21.9 27.7 47.4 61.5s46.8 61.9 47.4 62.4c.5.6.9-67.3.9-181.7V105H105v228zm118.2-131c17.1 5.3 31.1 20.4 35.3 38.2 5 21.3-3.9 43.2-22.6 55.7-16.7 11.1-40.2 10.9-57.4-.4-35.9-23.9-28.7-78.6 12.2-93.1 9-3.1 23.1-3.3 32.5-.4zM498 213.6c14 6.5 19.7 23.3 12.4 36.5-3.4 6-10 11.2-16.5 12.9-2.5.7-18.3 1-44.7.8-39.6-.3-40.8-.4-44.8-2.5-4.9-2.6-10.8-9-12.9-13.9-3.8-9.2-.6-22.6 7-29.2 7.7-6.9 9.3-7 55.5-6.9 37.8.2 39.7.3 44 2.3zm-72 90.5c5.5 2.5 10.5 7.1 13.3 12.4 1.7 3.1 2.2 5.8 2.2 11.5 0 8.8-2.1 13.6-8.3 19.2-7.6 6.9-7.8 6.9-54.7 6.6-41.2-.3-42.1-.3-46.1-2.5-8-4.3-14.4-14.7-14.4-23.3 0-9.2 6.8-19.6 15.4-23.6 5.1-2.4 5.1-2.4 46.6-2.4 39.6 0 41.7.1 46 2.1z"/><path d="M427.4 481.1c-35.7 32.5-66.4 60.5-68.2 62.3l-3.3 3.2 18.3 24.2 18.2 24.2H595v-36.8l-51.1-67.8c-28.1-37.4-51.2-68-51.4-68.2-.1-.1-29.4 26.4-65.1 58.9zM200.3 546.3l-53.1 48.2 89 .3c49 .1 89.3 0 89.5-.2.4-.3-67.7-91.6-71.1-95.3-.9-1-13.5 9.9-54.3 47z"/></svg>