<?xml version="1.0" standalone="no"?>
<!DOCTYPE svg PUBLIC "-//W3C//DTD SVG 20010904//EN"
 "http://www.w3.org/TR/2001/REC-SVG-20010904/DTD/svg10.dtd">
<svg version="1.0" xmlns="http://www.w3.org/2000/svg"
 width="512.000000pt" height="512.000000pt" viewBox="0 0 512.000000 512.000000"
 preserveAspectRatio="xMidYMid meet">
<metadata>
Created by potrace 1.11, written by Peter Selinger 2001-2013
</metadata>
<g transform="translate(0.000000,512.000000) scale(0.100000,-0.100000)"
fill="#000000" stroke="none">
<path d="M505 5104 c-192 -41 -363 -179 -446 -359 -62 -137 -59 -21 -59 -2185
0 -1759 2 -1979 16 -2047 41 -199 166 -360 349 -448 143 -69 11 -65 2195 -65
2184 0 2052 -4 2195 65 183 88 308 249 349 448 14 68 16 288 16 2047 0 2184 4
2052 -65 2195 -88 183 -249 308 -448 349 -68 14 -287 16 -2054 15 -1709 -1
-1988 -3 -2048 -15z m4133 -394 c27 -15 54 -42 70 -70 l27 -45 0 -2035 0
-2035 -25 -43 c-15 -27 -42 -54 -70 -70 l-45 -27 -2035 0 -2035 0 -40 23 c-45
26 -81 72 -95 123 -14 46 -14 4012 0 4058 20 69 70 120 138 141 15 5 936 8
2047 7 l2020 -2 43 -25z"/>
<path d="M770 2685 c0 -916 2 -1665 4 -1665 3 0 257 230 566 510 309 281 565
510 569 510 3 -1 107 -136 231 -300 124 -165 228 -300 233 -300 4 0 294 261
644 580 350 320 639 577 643 573 4 -4 159 -209 344 -455 185 -247 339 -448
341 -448 3 0 5 599 5 1330 l0 1330 -1790 0 -1790 0 0 -1665z m913 937 c77 -38
148 -111 185 -190 24 -50 27 -69 27 -157 0 -87 -3 -107 -26 -155 -40 -85 -99
-144 -186 -187 -69 -34 -82 -37 -162 -37 -122 0 -186 27 -272 113 -84 85 -112
150 -112 266 0 129 52 236 151 309 115 84 270 99 395 38z m1985 -79 c50 -32
92 -108 92 -162 -1 -74 -51 -146 -122 -176 -51 -21 -621 -23 -671 -2 -45 19
-105 89 -113 132 -16 87 23 177 93 214 36 19 59 20 358 21 l321 0 42 -27z
m-545 -649 c45 -23 66 -44 88 -86 47 -92 8 -213 -83 -257 -42 -20 -58 -21
-348 -21 -290 0 -306 1 -348 21 -62 31 -102 95 -102 166 0 82 34 139 105 176
45 24 641 25 688 1z"/>
<path d="M3105 1580 c-269 -246 -490 -454 -489 -462 1 -7 58 -89 128 -181
l127 -167 740 0 739 0 0 134 0 134 -372 495 c-205 273 -375 496 -378 496 -3 0
-225 -202 -495 -449z"/>
<path d="M1464 1122 l-382 -347 646 -3 c355 -1 647 0 649 2 6 5 -516 696 -525
696 -4 -1 -179 -157 -388 -348z"/>
</g>
</svg>
